<?xml version="1.0" encoding="utf-8"?>
<!-- Generator: Adobe Illustrator 16.0.0, SVG Export Plug-In . SVG Version: 6.00 Build 0)  -->
<!DOCTYPE svg PUBLIC "-//W3C//DTD SVG 1.1//EN" "http://www.w3.org/Graphics/SVG/1.1/DTD/svg11.dtd">
<svg version="1.1" id="Layer_1" xmlns="http://www.w3.org/2000/svg" xmlns:xlink="http://www.w3.org/1999/xlink" x="0px" y="0px"
	 width="154px" height="177px" viewBox="0 0 154 177" enable-background="new 0 0 154 177" xml:space="preserve">
<path fill="#FFFFFF" stroke="#F2F2F4" stroke-width="2" d="M1,52.911c0-5.011,2.678-9.64,7.023-12.138L69.968,5.164
	c4.32-2.483,9.635-2.483,13.955,0l62.054,35.672c4.346,2.498,7.023,7.126,7.023,12.138v71.088c0,5.011-2.68,9.64-7.023,12.137
	l-62,35.637c-4.32,2.482-9.633,2.482-13.953,0l-62-35.637C3.679,133.702,1,129.073,1,124.063V52.911z"/>
<linearGradient id="SVGID_1_" gradientUnits="userSpaceOnUse" x1="-431" y1="462" x2="-346.6514" y2="462" gradientTransform="matrix(1 0 0 -1 462 550)">
	<stop  offset="0.0837" style="stop-color:#40D5E7"/>
	<stop  offset="1" style="stop-color:#009EFD"/>
</linearGradient>
<linearGradient id="SVGID_2_" gradientUnits="userSpaceOnUse" x1="30.5" y1="88" x2="115.8486" y2="88">
	<stop  offset="0.0837" style="stop-color:#40D5E7"/>
	<stop  offset="1" style="stop-color:#009EFD"/>
</linearGradient>
<path fill="url(#SVGID_1_)" stroke="url(#SVGID_2_)" stroke-miterlimit="10" d="M44.804,103.907c2.489,0,4.775,0.081,7.054-0.02
	c3.645-0.157,7.149,0.384,10.45,1.929c6.232,2.918,12.759,4.104,19.614,3.578c1.141-0.086,2.291-0.014,3.438-0.014
	c4.875-0.004,6.347,1.119,7.644,6.076c3.715-1.49,7.399-2.967,11.084-4.446c0.996-0.398,1.976-0.843,2.983-1.202
	c3.134-1.11,6.335,0.133,7.656,2.943c1.4,2.98,0.394,6.301-2.596,7.932c-9.854,5.379-19.713,10.754-29.639,15.998
	c-3.707,1.959-7.643,1.488-11.486,0.187c-5.485-1.857-10.911-3.908-16.454-5.572c-3.081-0.926-6.348-1.237-9.531-1.826
	c-0.036,0.212-0.072,0.423-0.109,0.634c-0.039,0.057-0.107,0.106-0.114,0.166c-0.541,4.354-0.54,4.354-5.063,4.354
	c-2.221-0.002-4.441-0.016-6.662,0.008c-1.436,0.016-2.075-0.643-2.073-2.088c0.019-10.387,0.025-20.773,0.001-31.161
	c-0.004-1.604,0.752-2.131,2.256-2.102c2.864,0.055,5.73,0.015,8.596,0.021c2.575,0.006,2.768,0.202,2.839,2.813
	C44.703,102.605,44.751,103.098,44.804,103.907z M44.846,126.581c2.403,0.297,4.747,0.276,6.898,0.914
	c5.889,1.746,11.782,3.539,17.51,5.742c5.518,2.122,10.396,2.071,15.676-1.105c8.197-4.936,16.807-9.184,25.223-13.756
	c2.103-1.144,2.689-2.683,1.834-4.375c-0.797-1.579-2.372-2.034-4.422-1.185c-6.067,2.52-12.119,5.082-18.19,7.59
	c-0.709,0.295-1.515,0.492-2.276,0.496c-6.371,0.037-12.745,0.016-19.117,0.022c-1.071,0-2.287-0.118-2.045-1.455
	c0.107-0.594,1.349-1.36,2.104-1.395c3.431-0.152,6.871-0.068,10.31-0.074c2.791-0.006,5.586,0.041,8.377-0.045
	c1.936-0.06,3.141-1.265,3.092-2.853c-0.047-1.565-1.363-2.725-3.187-2.774c-0.93-0.026-1.862-0.045-2.793-0.003
	c-7.578,0.343-15.032-0.053-22.008-3.512c-0.893-0.442-1.85-0.768-2.798-1.086c-4.661-1.567-9.424-0.797-14.186-0.883
	C44.846,113.637,44.846,120.118,44.846,126.581z M34.121,131.372c2.656,0,4.973,0,7.359,0c0-9.688,0-19.222,0-28.988
	c-1.802,0-3.44,0.099-5.061-0.026c-1.733-0.135-2.386,0.398-2.331,2.244c0.128,4.286,0.034,8.578,0.033,12.871
	C34.121,122.036,34.121,126.602,34.121,131.372z M76.433,40.151c-16.03,0-29.026,12.995-29.026,29.025
	c0,16.031,12.996,29.027,29.026,29.027c16.031,0,29.025-12.996,29.025-29.027C105.459,53.146,92.465,40.151,76.433,40.151z
	 M45.257,69.176C45.257,51.958,59.216,38,76.434,38s31.175,13.958,31.175,31.176c0,17.219-13.957,31.178-31.175,31.178
	S45.257,86.395,45.257,69.176z M49.558,84.658c0-0.594,0.48-1.075,1.074-1.075h51.46c0.594,0,1.076,0.481,1.076,1.075
	c0,0.594-0.482,1.075-1.076,1.075h-51.46C50.038,85.733,49.558,85.252,49.558,84.658z M49.558,53.696
	c0-0.594,0.48-1.074,1.074-1.074h51.46c0.594,0,1.076,0.48,1.076,1.074c0,0.594-0.482,1.076-1.076,1.076h-51.46
	C50.038,54.772,49.558,54.29,49.558,53.696z M45.686,69.176c0-0.594,0.482-1.074,1.076-1.074h59.2c0.595,0,1.074,0.48,1.074,1.074
	c0,0.594-0.479,1.076-1.074,1.076h-59.2C46.169,70.253,45.686,69.77,45.686,69.176z M76.361,99.852
	c-0.594,0-1.074-0.479-1.074-1.074v-59.2c0-0.594,0.48-1.075,1.074-1.075c0.594,0,1.076,0.481,1.076,1.075v59.2
	C77.437,99.372,76.955,99.852,76.361,99.852z M75.459,38.301c0.428,0.413,0.439,1.094,0.027,1.521
	c-8.555,8.867-13.028,19.04-13.028,29.354c0,10.316,4.474,20.488,13.028,29.355c0.412,0.428,0.4,1.106-0.027,1.521
	c-0.426,0.412-1.107,0.399-1.52-0.026c-8.868-9.191-13.632-19.878-13.632-30.85c0-10.97,4.764-21.656,13.632-30.848
	C74.351,37.902,75.033,37.889,75.459,38.301z M77.359,38.301c0.428-0.412,1.107-0.399,1.52,0.027
	c8.869,9.191,13.633,19.878,13.633,30.848c0,10.971-4.764,21.657-13.633,30.85c-0.412,0.427-1.092,0.438-1.52,0.026
	c-0.428-0.413-0.439-1.093-0.027-1.521c8.555-8.867,13.029-19.039,13.029-29.355c0-10.313-4.476-20.487-13.029-29.354
	C76.92,39.395,76.932,38.715,77.359,38.301z"/>
</svg>
