<svg width="154" height="177" viewBox="0 0 154 177"   xmlns="http://www.w3.org/2000/svg">
<path d="M8.02281 40.7735L69.9684 5.1643C74.2884 2.68094 79.6029 2.68096 83.9229 5.16434L145.977 40.8366C150.322 43.334 153 47.963 153 52.9741L153 124.062C153 129.073 150.321 133.702 145.977 136.199L83.9767 171.836C79.6569 174.319 74.3431 174.319 70.0233 171.836L8.02329 136.199C3.67857 133.702 1.00001 129.073 1.00001 124.062L1.00001 52.911C1.00001 47.8999 3.67836 43.2709 8.02281 40.7735Z"  />
<path d="M106.42 96.9775C110.816 90.9479 113.418 83.532 113.418 75.5168C113.418 55.3819 97.0367 39 76.9018 39C56.7668 39 40.3858 55.3819 40.3858 75.5168C40.3858 83.5796 43.0174 91.0363 47.4588 97.084L32 123.82L50.0904 122.86L58.303 139L73.9524 111.905C74.9266 111.983 75.9085 112.034 76.9026 112.034C77.9418 112.034 78.967 111.979 79.9837 111.895L95.639 139L103.852 122.86L121.942 123.82L106.42 96.9775ZM68.8199 112.132L58.542 129.924L52.6701 118.388L39.7433 119.073L50.4152 100.617C55.4082 105.884 61.9443 109.669 69.2979 111.232L68.8199 112.132ZM44.7146 75.5168C44.7146 57.7702 59.1534 43.3297 76.9009 43.3297C94.6484 43.3297 109.087 57.7702 109.087 75.5168C109.087 93.2652 94.6484 107.704 76.9009 107.704C59.1534 107.704 44.7146 93.2652 44.7146 75.5168ZM101.269 118.388L95.3966 129.924L85.1196 112.132L84.626 111.205C91.9709 109.615 98.4958 105.811 103.472 100.528L114.195 119.073L101.269 118.388ZM76.9009 47.8577C61.649 47.8577 49.2409 60.265 49.2409 75.5168C49.2409 90.7687 61.649 103.176 76.9009 103.176C92.1528 103.176 104.562 90.7687 104.562 75.5168C104.562 60.265 92.1536 47.8577 76.9009 47.8577ZM76.9009 98.8471C64.0364 98.8471 53.5706 88.3813 53.5706 75.5177C53.5706 62.6541 64.0364 52.1883 76.9009 52.1883C89.7654 52.1883 100.232 62.6541 100.232 75.5177C100.232 88.3813 89.7662 98.8471 76.9009 98.8471ZM95.2537 71.0771C94.8528 69.844 93.8093 68.9651 92.532 68.7789L83.8267 67.512L79.93 59.6103C79.3567 58.443 78.1937 57.7174 76.894 57.7174C75.5942 57.7174 74.4312 58.443 73.858 59.6103L69.9759 67.512L61.2715 68.7789C59.9933 68.9651 58.9508 69.844 58.5498 71.0754C58.148 72.3102 58.4736 73.6377 59.4002 74.5444L65.6991 80.6926L64.2226 89.3399C64.0477 90.3245 64.3144 91.3255 64.9543 92.0901C65.6029 92.8634 66.5503 93.3076 67.553 93.3076C68.1038 93.3076 68.6554 93.1674 69.1325 92.9119L76.926 88.8186L84.7308 92.918C85.2148 93.1682 85.7543 93.2998 86.2921 93.2998C87.2862 93.2998 88.2283 92.8634 88.876 92.1005C89.5177 91.348 89.7939 90.3513 89.6311 89.3503L88.1374 80.6891L94.4051 74.5426C95.3299 73.6377 95.6555 72.3102 95.2537 71.0771ZM84.7801 77.919C83.9774 78.6784 83.6033 79.7929 83.7834 80.9281L85.0356 88.189L78.5271 84.7712C77.5486 84.2386 76.2722 84.2533 75.3517 84.7556L68.8104 88.1908L70.0521 80.9169C70.2314 79.8448 69.8738 78.7399 69.078 77.9415L63.7966 72.7882L71.1476 71.7179C72.2196 71.5369 73.1488 70.852 73.6424 69.8674L76.8948 63.2464L80.1508 69.8475C80.627 70.8433 81.5692 71.5421 82.701 71.7249L90.0113 72.7891L84.7801 77.919Z" fill="url(#paint0_linear)"/>
<defs>
<linearGradient id="paint0_linear" x1="32" y1="45" x2="120.068" y2="92.4771" gradientUnits="userSpaceOnUse">
<stop offset="0.0837408" stop-color="#40D5E7"/>
<stop offset="1" stop-color="#009EFD"/>
</linearGradient>
</defs>
</svg>
