<svg width="154" height="177" viewBox="0 0 154 177" fill="none" xmlns="http://www.w3.org/2000/svg">
<path d="M1.00001 52.911C1.00001 47.8999 3.67836 43.2709 8.02281 40.7735L69.9684 5.1643C74.2884 2.68094 79.6029 2.68096 83.9229 5.16434L145.977 40.8366C150.322 43.334 153 47.963 153 52.9741L153 124.062C153 129.073 150.321 133.702 145.977 136.199L83.9767 171.836C79.6569 174.319 74.3431 174.319 70.0233 171.836L8.02329 136.199C3.67855 133.702 1.00001 129.073 1.00001 124.062L1.00001 52.911Z" fill="white" stroke="#F2F2F4" stroke-width="2"/>
<path d="M58.625 72.3984C58.625 62.5977 66.5977 54.625 76.3984 54.625V62.4375C70.906 62.4375 66.4375 66.906 66.4375 72.3984H58.625ZM97.4014 89.5211C100.01 90.3611 102.773 90.8524 105.637 90.9386C103.78 94.3558 101.584 97.2489 99.5018 99.9886C95.3361 105.471 92.0448 109.802 92.0448 117.011V127.281C92.0448 133.743 86.7881 139 80.326 139H72.8607C66.3994 139 61.1419 133.743 61.1419 127.281V117.011C61.1419 109.802 57.8514 105.471 53.6857 99.9886C48.7045 93.4334 43.0626 86.0093 43.0008 72.5938H43L43.0008 72.3702C43.1213 53.949 58.1443 39 76.5938 39C79.5837 39 82.4836 39.3952 85.2447 40.1314C83.2336 42.1769 81.5147 44.5084 80.1544 47.0597C78.9901 46.8979 77.8022 46.8125 76.5938 46.8125C62.4107 46.8125 50.8659 58.3237 50.8125 72.4946C50.8461 83.339 55.2475 89.1312 59.906 95.2614C63.5208 100.018 67.2355 104.907 68.5013 111.852H84.6862C85.952 104.907 89.6667 100.018 93.2815 95.2614C94.7197 93.3686 96.1334 91.5078 97.4014 89.5211ZM84.2323 127.281V119.664H68.9544V127.281C68.9544 129.435 70.7069 131.188 72.8607 131.188H80.326C82.4806 131.188 84.2323 129.435 84.2323 127.281ZM121.673 64.9766C121.304 66.4078 120.733 67.7582 119.997 69.0011L124.957 73.9609L119.434 79.4854L114.473 74.5255C113.212 75.2717 111.839 75.8469 110.383 76.2162V83.1406H102.57V76.1819C101.163 75.8118 99.8352 75.2488 98.6122 74.5255L93.6523 79.4854L88.1279 73.9609L93.0877 69.0011C92.3523 67.7582 91.7816 66.4078 91.4123 64.9766H84.4062V57.1641H91.4123C91.7816 55.7328 92.3523 54.3824 93.0877 53.1396L88.1279 48.1797L93.6523 42.6552L98.6122 47.6151C99.8916 46.8583 101.287 46.2784 102.766 45.9099V39H110.578V45.9763C111.961 46.3463 113.268 46.9025 114.473 47.6151L119.434 42.6552L124.957 48.1797L119.997 53.1396C120.733 54.3824 121.304 55.7328 121.673 57.1641H128.679V64.9766H121.673ZM106.543 68.8828C110.85 68.8828 114.355 65.3779 114.355 61.0703C114.355 56.7628 110.85 53.2578 106.543 53.2578C104.865 53.2578 103.311 53.7911 102.037 54.6937L100.166 56.5644C99.263 57.8385 98.7304 59.3926 98.7304 61.0703C98.7304 65.3779 102.235 68.8828 106.543 68.8828Z" fill="url(#paint0_linear)"/>
<defs>
<linearGradient id="paint0_linear" x1="43" y1="45" x2="128.679" y2="89" gradientUnits="userSpaceOnUse">
<stop offset="0.0837408" stop-color="#40D5E7"/>
<stop offset="1" stop-color="#009EFD"/>
</linearGradient>
</defs>
</svg>
