<svg width="154" height="177" viewBox="0 0 154 177" fill="none" xmlns="http://www.w3.org/2000/svg">
<path d="M1.00001 52.911C1.00001 47.8999 3.67836 43.2709 8.02281 40.7735L69.9684 5.1643C74.2884 2.68094 79.6029 2.68096 83.9229 5.16434L145.977 40.8366C150.322 43.334 153 47.963 153 52.9741L153 124.062C153 129.073 150.321 133.702 145.977 136.199L83.9767 171.836C79.6569 174.319 74.3431 174.319 70.0233 171.836L8.02329 136.199C3.67855 133.702 1.00001 129.073 1.00001 124.062L1.00001 52.911Z" fill="white" stroke="#F2F2F4" stroke-width="2"/>
<path fill-rule="evenodd" clip-rule="evenodd" d="M77.0217 47.0104C90.5277 47.0104 104.034 47.0081 117.54 47.0121C120.703 47.0131 122.002 48.3729 122 51.5307C121.986 70.3221 121.99 89.113 121.984 107.904C121.983 110.991 120.652 112.315 117.544 112.316C90.3643 112.321 63.1842 112.324 36.0039 112.326C33.5417 112.327 32.0158 110.838 32.014 108.358C32.0012 89.1888 31.9972 70.0203 32.0019 50.8517C32.0027 48.5136 33.6049 47.0005 35.9997 47.0005C49.6738 46.9998 63.3476 47 77.0215 47C77.0217 47.0041 77.0217 47.0071 77.0217 47.0104ZM38.7383 105.556C64.3224 105.556 89.757 105.556 115.233 105.556C115.233 88.25 115.233 71.0364 115.233 53.7943C89.6858 53.7943 64.2215 53.7943 38.7383 53.7943C38.7383 71.0923 38.7383 88.2767 38.7383 105.556ZM101.411 130.87C101.346 129.221 100.712 127.894 99.6074 126.721C98.0923 125.114 96.2061 124.546 94.0861 124.531C92.3441 124.519 90.6022 124.528 88.7027 124.528C88.7027 121.911 88.7027 119.502 88.7027 116.99C88.1271 116.99 87.7135 116.99 87.3001 116.99C80.4228 116.987 73.5449 117.01 66.6681 116.954C65.5022 116.944 65.1495 117.279 65.2011 118.433C65.2902 120.427 65.2258 122.426 65.2258 124.528C64.6074 124.528 64.1545 124.512 63.7029 124.531C61.7009 124.612 59.6639 124.499 57.7057 124.838C54.6428 125.369 52.4112 128.095 52.4993 130.87C68.7909 130.87 85.0856 130.87 101.411 130.87ZM50.8372 61.0797C49.9024 61.0757 49.4414 61.2592 49.3019 62.3544C48.9082 65.4488 48.4124 68.5359 47.7954 71.593C47.5751 72.6856 47.8984 73.1894 48.8173 73.4726C49.7317 73.7544 50.3986 73.485 50.8802 72.5729C51.5199 71.3611 52.2045 70.1547 53.0232 69.0608C54.8754 66.5862 57.0924 64.6129 60.4192 64.51C62.0221 64.4606 62.7026 65.1416 62.7029 66.7368C62.7049 74.8311 62.6802 82.9257 62.7238 91.0201C62.7323 92.6404 62.0211 93.7952 60.7349 94.5304C59.7052 95.119 58.5347 95.5853 57.3718 95.7839C56.0906 96.0019 56.1543 96.7514 56.1503 97.6703C56.1458 98.7363 56.8182 98.7456 57.5856 98.7438C61.2344 98.7338 64.8831 98.7396 68.5319 98.7396C71.8871 98.7396 75.2425 98.7622 78.597 98.7114C79.0431 98.7048 79.742 98.4307 79.8807 98.0966C80.3921 96.8655 79.8684 96.12 78.5681 95.8068C77.8052 95.6233 77.0555 95.3524 76.3317 95.0457C74.313 94.19 73.37 92.7207 73.3901 90.4468C73.4598 82.5627 73.416 74.6776 73.4178 66.7927C73.4183 65.1157 74.1006 64.4178 75.7765 64.5173C77.7 64.6313 79.413 65.2932 80.8696 66.6139C82.7551 68.3236 84.1851 70.3531 85.2916 72.6265C85.7455 73.5592 86.4791 73.8349 87.3469 73.3254C87.7963 73.0618 88.4386 72.4706 88.388 72.1131C87.9298 68.8591 87.2543 65.6351 86.8286 62.3778C86.6722 61.1817 86.1372 61.0765 85.1861 61.0805C79.4827 61.1042 73.7786 61.0921 68.0749 61.0923C62.3288 61.0921 56.5828 61.1044 50.8372 61.0797ZM106.667 88.2253C106.322 87.9496 106.001 87.6367 105.629 87.4046C102.068 85.1835 98.5034 82.966 94.9191 80.7825C94.6198 80.6 94.0334 80.5053 93.8194 80.6737C93.6032 80.8442 93.5697 81.4182 93.6518 81.7702C94.264 84.3983 94.9222 87.0161 95.5724 89.6359C95.9428 91.1281 96.2963 92.6256 96.7248 94.1009C96.8262 94.4503 97.1528 94.8851 97.4627 94.9722C97.687 95.0352 98.119 94.6399 98.3438 94.3577C98.7562 93.8393 99.1054 93.2665 99.4402 92.6928C99.8317 92.0229 100.171 92.0025 100.625 92.6487C101.485 93.8723 102.393 95.0624 103.268 96.2756C104.533 98.0294 104.934 98.0631 106.454 96.4961C106.621 96.3234 106.751 96.1147 106.928 95.8849C105.728 94.2227 104.565 92.6064 103.396 90.9937C102.851 90.2429 102.94 89.8439 103.94 89.6352C104.874 89.44 105.765 89.0365 106.675 88.7245C106.672 88.5584 106.67 88.3917 106.667 88.2253Z" fill="url(#paint0_linear)"/>
<defs>
<linearGradient id="paint0_linear" x1="122" y1="81.5" x2="32" y2="47" gradientUnits="userSpaceOnUse">
<stop stop-color="#01A0FC"/>
<stop offset="1" stop-color="#40D5E7"/>
</linearGradient>
</defs>
</svg>
