<svg width="154" height="177" viewBox="0 0 154 177" fill="none" xmlns="http://www.w3.org/2000/svg">
<path d="M1.00001 52.911C1.00001 47.8999 3.67836 43.2709 8.02281 40.7735L69.9684 5.1643C74.2884 2.68094 79.6029 2.68096 83.9229 5.16434L145.977 40.8366C150.322 43.334 153 47.963 153 52.9741L153 124.062C153 129.073 150.321 133.702 145.977 136.199L83.9767 171.836C79.6569 174.319 74.3431 174.319 70.0233 171.836L8.02329 136.199C3.67855 133.702 1.00001 129.073 1.00001 124.062L1.00001 52.911Z" fill="white" stroke="#F2F2F4" stroke-width="2"/>
<path fill-rule="evenodd" clip-rule="evenodd" d="M57.3102 101.744C56.2222 100.836 55.0252 99.976 53.9962 98.951C47.3462 92.369 40.6702 85.816 34.1272 79.126C24.7222 69.526 24.6342 55.024 33.8102 45.814C42.9802 36.605 57.4632 36.732 67.0782 46.185C73.5822 52.573 80.0422 59.018 86.4052 65.541C97.4262 76.859 95.5992 94.253 82.7372 102.349C80.5102 103.755 79.1592 103.531 77.5122 101.538C74.1192 97.407 74.1392 94.106 77.9122 90.513C82.3222 86.294 82.9672 80.053 78.7812 75.6C71.8282 68.198 64.6162 61.01 57.2582 54.008C53.0692 50.023 46.5782 50.57 42.5452 54.672C38.4342 58.861 38.1902 65.297 42.3162 69.701C47.0532 74.76 52.0182 79.594 56.9462 84.468C58.2882 85.796 58.6302 86.997 58.3032 88.989C57.6382 93.033 57.6282 97.174 57.3102 101.744ZM95.4512 88.814C95.0992 90.953 95.5052 92.212 96.9652 93.628C101.521 98.052 105.989 102.564 110.437 107.095C115.476 112.232 115.681 118.785 111.019 123.395C106.556 127.799 99.9192 127.487 94.9682 122.565C88.9072 116.549 82.8632 110.503 76.8662 104.419C70.4502 97.915 70.6112 92.398 77.3152 86.128C79.3912 84.185 79.1312 79.984 76.7582 76.996C74.4202 74.057 73.2082 73.92 69.9322 76.244C58.6372 84.243 56.5472 100.454 65.9132 110.649C73.0132 118.384 80.4552 125.845 88.1502 132.984C97.5102 141.666 111.564 140.777 120.558 131.431C128.883 122.779 128.742 108.198 120.177 99.369C115.763 94.818 111.245 90.355 106.739 85.892C103.33 82.523 99.8632 79.202 96.4112 75.852C96.1012 80.63 96.1202 84.781 95.4512 88.814Z" fill="url(#paint0_linear)"/>
<defs>
<linearGradient id="paint0_linear" x1="24.2355" y1="61.97" x2="129.473" y2="116.055" gradientUnits="userSpaceOnUse">
<stop offset="0.0837" stop-color="#40D5E7"/>
<stop offset="1" stop-color="#009EFD"/>
</linearGradient>
</defs>
</svg>
